<svg width="25" height="24" viewBox="0 0 25 24" fill="none" xmlns="http://www.w3.org/2000/svg">
<path d="M11.6313 3.23767C12.1254 2.79378 12.8745 2.79383 13.3687 3.23767L19.9692 9.16736C20.2435 9.41386 20.3998 9.76546 20.3999 10.1342V18.6C20.3996 19.3177 19.8179 19.8998 19.1001 19.8998H16.6997C15.9821 19.8996 15.4002 19.3176 15.3999 18.6V13.7992C15.3997 13.1918 14.9075 12.6997 14.3003 12.6996H10.6997C10.0925 12.6998 9.60026 13.1918 9.6001 13.7992V18.6C9.59984 19.3176 9.01801 19.8997 8.30029 19.8998H5.8999C5.18218 19.8997 4.60036 19.3176 4.6001 18.6V10.1342C4.6002 9.76537 4.7574 9.41384 5.03174 9.16736L11.6313 3.23767Z" fill="#29704D" stroke="#29704D"/>
</svg>
