<svg width="25" height="24" viewBox="0 0 25 24" fill="none" xmlns="http://www.w3.org/2000/svg">
<path d="M13 1.5C15.6375 1.5 17.7762 3.63798 17.7764 6.27539C17.7764 8.91296 15.6376 11.0518 13 11.0518C10.3626 11.0515 8.22461 8.91283 8.22461 6.27539C8.22481 3.63811 10.3627 1.50021 13 1.5Z" fill="#999999" stroke="#999999"/>
<path d="M20.7448 17.6925C20.0902 16.1823 19.0082 14.8965 17.6322 13.9932C16.2561 13.0899 14.646 12.6087 13 12.6087C11.354 12.6087 9.74387 13.0899 8.36782 13.9932C6.99177 14.8965 5.90983 16.1823 5.25515 17.6925C5.04911 18.1741 4.96581 18.6993 5.01272 19.2211C5.05962 19.7428 5.23526 20.2447 5.52389 20.6818C5.81252 21.1189 6.20512 21.4776 6.66648 21.7257C7.12785 21.9737 7.64356 22.1034 8.16738 22.1031H17.8326C18.3564 22.1034 18.8722 21.9737 19.3335 21.7257C19.7949 21.4776 20.1875 21.1189 20.4761 20.6818C20.7647 20.2447 20.9404 19.7428 20.9873 19.2211C21.0342 18.6993 20.9509 18.1741 20.7448 17.6925Z" fill="#999999"/>
</svg>
