<svg width="25" height="24" viewBox="0 0 25 24" fill="none" xmlns="http://www.w3.org/2000/svg">
<path d="M22.9604 11.6304C22.6052 11.2628 22.1197 11.0497 21.6088 11.0371C21.0978 11.0245 20.6024 11.2135 20.2296 11.5632L16.5342 14.8464C16.7211 15.2067 16.8182 15.6069 16.8174 16.0128C16.8154 16.5362 16.6547 17.0467 16.3566 17.4769C16.0584 17.9071 15.6367 18.2368 15.1473 18.4224L12.0422 19.5888C11.9231 19.6313 11.7921 19.6255 11.6773 19.5725C11.5624 19.5196 11.4729 19.4238 11.4279 19.3056C11.4052 19.247 11.3943 19.1845 11.396 19.1217C11.3978 19.0589 11.412 18.9971 11.4379 18.9399C11.4638 18.8826 11.5009 18.8312 11.547 18.7885C11.5931 18.7458 11.6472 18.7127 11.7063 18.6912L14.8114 17.5248C15.1182 17.4082 15.3825 17.2012 15.5693 16.9313C15.7561 16.6613 15.8566 16.3411 15.8576 16.0128C15.8458 15.5888 15.6721 15.1854 15.3722 14.8855C15.0723 14.5856 14.669 14.4118 14.245 14.4H5.29932C5.29933 14.2739 5.27451 14.1491 5.22628 14.0326C5.17805 13.9162 5.10735 13.8103 5.01822 13.7212C4.92909 13.632 4.82328 13.5613 4.70682 13.5131C4.59036 13.4648 4.46554 13.44 4.33948 13.44H2.4198C2.29374 13.44 2.16892 13.4648 2.05246 13.5131C1.936 13.5613 1.83018 13.632 1.74106 13.7212C1.65193 13.8103 1.58123 13.9162 1.533 14.0326C1.48477 14.1491 1.45995 14.2739 1.45996 14.4V22.08C1.45994 22.3346 1.56106 22.5787 1.74106 22.7588C1.92106 22.9388 2.16521 23.04 2.4198 23.04H4.33948C4.59407 23.04 4.83822 22.9388 5.01822 22.7588C5.19823 22.5787 5.29934 22.3346 5.29932 22.08H7.243L7.8429 22.3248C9.70459 23.095 11.7643 23.2478 13.7192 22.7605C15.6741 22.2732 17.4212 21.1715 18.7035 19.6176L23.0755 14.3328C23.3946 13.9481 23.5594 13.4587 23.5381 12.9594C23.5168 12.4601 23.3109 11.9865 22.9604 11.6304ZM6.73908 21.12H5.29932V15.36H6.73908V21.12ZM15.1006 0.959976C14.1537 0.95743 13.2347 1.28085 12.4981 1.87591C11.7615 1.28085 10.8425 0.957431 9.89558 0.959976C8.79124 0.962735 7.73308 1.40341 6.95322 2.18533C6.17337 2.96725 5.73549 4.02657 5.73565 5.13091C5.73565 9.51935 11.9901 13.2192 12.2563 13.3748C12.3297 13.4175 12.4132 13.44 12.4981 13.44C12.5831 13.44 12.6665 13.4175 12.7399 13.3748C13.0061 13.2192 19.2606 9.51934 19.2606 5.13091C19.2607 4.02657 18.8229 2.96725 18.043 2.18533C17.2631 1.40341 16.205 0.962734 15.1006 0.959976ZM14.2501 9.91538C14.1623 9.98744 14.0515 10.0254 13.938 10.0224C13.8412 10.0216 13.747 9.9915 13.6677 9.93602C13.5885 9.88054 13.5279 9.80231 13.4941 9.71167C13.4602 9.62103 13.4547 9.52225 13.4782 9.4284C13.5017 9.33455 13.5532 9.25005 13.6258 9.18607C15.4025 7.66404 16.3811 6.22357 16.3811 5.13091C16.3821 4.79005 16.2478 4.4627 16.0078 4.22069C15.7677 3.97867 15.4415 3.84176 15.1006 3.83998C14.9733 3.83998 14.8512 3.7894 14.7612 3.69939C14.6712 3.60937 14.6206 3.48728 14.6206 3.35998C14.6206 3.23267 14.6712 3.11058 14.7612 3.02056C14.8512 2.93055 14.9733 2.87998 15.1006 2.87998C15.696 2.88203 16.2663 3.12018 16.6862 3.54218C17.1062 3.96417 17.3417 4.53554 17.3409 5.13091C17.3409 6.89666 15.6603 8.70695 14.2501 9.91538Z" fill="#999999"/>
</svg>
