<svg width="48" height="48" viewBox="0 0 48 48" fill="none" xmlns="http://www.w3.org/2000/svg">
<path d="M1.8751 14.9925L5.8201 17.265C5.9326 17.3325 6.0676 17.37 6.1951 17.37C6.2626 17.37 6.3301 17.3625 6.3901 17.34C6.5851 17.2875 6.7501 17.16 6.8476 16.9875L9.4876 18.5025C9.52509 18.525 9.5626 18.54 9.6001 18.555L19.9576 22.305C20.3176 22.44 20.6851 22.5 21.0526 22.5C22.1776 22.5 23.2576 21.9 23.8426 20.865C24.7276 19.32 24.1876 17.34 22.6501 16.4475L19.5976 14.6925L21.6601 13.92C22.7176 13.5225 23.8876 13.62 24.8701 14.1825L32.2201 18.4275C32.9251 18.8325 33.7351 18.9375 34.5151 18.72C35.2951 18.51 35.9476 18 36.3526 17.295C37.1776 15.84 36.6751 13.9875 35.2276 13.155L25.7626 7.695C24.5026 6.9675 23.0776 6.6675 21.6376 6.825L13.5976 7.71L12.4876 7.0725L12.8701 6.3975C13.0726 6.0375 12.9526 5.58 12.5926 5.3775L8.6476 3.0975C8.4751 3 8.2651 2.9775 8.0776 3.03C7.8826 3.075 7.7176 3.2025 7.6201 3.3825L1.5976 13.9725C1.3951 14.3325 1.5151 14.79 1.8751 14.9925ZM13.0651 9.135C13.2001 9.2175 13.3576 9.2475 13.5151 9.2325L21.8026 8.3175C22.9276 8.1975 24.0376 8.43 25.0126 8.9925L34.4851 14.4525C35.2126 14.8725 35.4676 15.8175 35.0476 16.5525C34.8451 16.9125 34.5151 17.1675 34.1251 17.2725C33.7351 17.3775 33.3226 17.325 32.9701 17.1225L25.6126 12.885C24.2476 12.0975 22.6126 11.9625 21.1351 12.51L17.5876 13.845C17.3101 13.9425 17.1226 14.1975 17.1001 14.4825C17.0776 14.775 17.2201 15.0525 17.4751 15.195L21.9001 17.7525C22.7326 18.225 23.0176 19.29 22.5451 20.13C22.1251 20.8575 21.2551 21.18 20.4676 20.895L10.1776 17.1675L7.5901 15.6825L11.7451 8.3775L13.0651 9.135ZM8.5501 4.7775L11.1976 6.3L10.8151 6.975L5.9176 15.585L3.2701 14.07L8.5501 4.7775Z" fill="#29704D"/>
<path d="M45.465 31.9275C44.61 31.11 43.2675 30.69 41.685 30.7575C39.5175 30.8475 37.7475 32.565 37.4775 34.845C37.2075 37.1775 34.2525 39 30.75 39C27.03 39 24 36.9825 24 34.5C24 33.2625 22.9875 32.25 21.75 32.25H16.875C16.665 32.25 16.5 32.085 16.5 31.875C16.5 28.77 13.98 26.25 10.875 26.25C7.77 26.25 5.25 28.77 5.25 31.875V32.625C5.25 32.835 5.085 33 4.875 33H3.375C2.34 33 1.5 33.84 1.5 34.875V43.125C1.5 44.16 2.34 45 3.375 45H44.625C45.66 45 46.5 44.16 46.5 43.125V34.5C46.5 33.465 46.14 32.58 45.465 31.9275ZM9 36.75C8.5875 36.75 8.25 36.4125 8.25 36C8.25 35.5875 8.5875 35.25 9 35.25C9.4125 35.25 9.75 35.5875 9.75 36C9.75 36.4125 9.4125 36.75 9 36.75ZM10.5 32.25C10.0875 32.25 9.75 31.9125 9.75 31.5C9.75 31.0875 10.0875 30.75 10.5 30.75C10.9125 30.75 11.25 31.0875 11.25 31.5C11.25 31.9125 10.9125 32.25 10.5 32.25ZM13.5 35.25C13.0875 35.25 12.75 34.9125 12.75 34.5C12.75 34.0875 13.0875 33.75 13.5 33.75C13.9125 33.75 14.25 34.0875 14.25 34.5C14.25 34.9125 13.9125 35.25 13.5 35.25Z" fill="#29704D"/>
<path d="M29.8725 23.67C30.3375 22.9875 30.4425 22.245 30.105 22.005C29.7675 21.765 29.1075 22.1325 28.635 22.815C28.17 23.4975 28.065 24.24 28.4025 24.48C28.74 24.72 29.4 24.3525 29.8725 23.67Z" fill="#29704D"/>
<path d="M30.6225 34.92C31.0875 34.2375 31.1925 33.495 30.855 33.255C30.5175 33.015 29.8575 33.3825 29.385 34.065C28.92 34.7475 28.815 35.49 29.1525 35.73C29.49 35.97 30.15 35.6025 30.6225 34.92Z" fill="#29704D"/>
<path d="M23.6926 26.685C23.4001 26.9775 23.6401 27.69 24.2251 28.275C24.8101 28.86 25.5226 29.1 25.8151 28.8075C26.1076 28.515 25.8676 27.8025 25.2826 27.2175C24.6976 26.6325 23.9851 26.3925 23.6926 26.685Z" fill="#29704D"/>
<path d="M33 30C33.4142 30 33.75 29.3284 33.75 28.5C33.75 27.6716 33.4142 27 33 27C32.5858 27 32.25 27.6716 32.25 28.5C32.25 29.3284 32.5858 30 33 30Z" fill="#29704D"/>
</svg>
