<svg width="48" height="48" viewBox="0 0 48 48" fill="none" xmlns="http://www.w3.org/2000/svg">
<path d="M14.9409 9.14399L14.7783 9.30655C13.9895 10.0953 13.9895 11.3742 14.7783 12.1629L19.597 16.9817C20.3858 17.7704 21.6646 17.7704 22.4534 16.9817L22.616 16.8191C23.4047 16.0303 23.4047 14.7515 22.616 13.9627L17.7972 9.14399C17.0085 8.35522 15.7296 8.35522 14.9409 9.14399Z" fill="#29704D"/>
<path d="M12.5182 12.8919L12.3557 13.0545C11.5669 13.8433 11.5669 15.1221 12.3557 15.9109L20.2108 23.766C20.9995 24.5547 22.2784 24.5547 23.0672 23.766L23.2297 23.6034C24.0185 22.8146 24.0185 21.5358 23.2297 20.747L15.3746 12.8919C14.5859 12.1032 13.307 12.1032 12.5182 12.8919Z" fill="#29704D"/>
<path d="M9.59076 22.5199L9.4282 22.6824C8.63942 23.4712 8.63943 24.7501 9.4282 25.5388L12.7374 28.8481C13.5262 29.6368 14.8051 29.6368 15.5938 28.8481L15.7564 28.6855C16.5452 27.8967 16.5452 26.6179 15.7564 25.8291L12.4471 22.5199C11.6584 21.7311 10.3795 21.7311 9.59076 22.5199Z" fill="#29704D"/>
<path d="M24.8597 46.2068H32.9306V39.425L38.9817 33.2179V25.1141L31.2967 16.994C31.2967 16.994 28.1767 16.4932 28.2014 16.994C28.226 17.4948 26.1816 19.5228 27.758 21.0992C29.3344 22.6756 32.2327 26.124 32.2327 26.124L32.3559 30.4017L24.5395 41.182H16.7888V46.2068H24.8597Z" fill="#29704D"/>
<path d="M22.6265 41.2313H16.0581V46.1576H22.6265V41.2313Z" fill="#29704D"/>
<path d="M14.9409 9.14399L14.7783 9.30655C13.9895 10.0953 13.9895 11.3742 14.7783 12.1629L19.597 16.9817C20.3858 17.7704 21.6646 17.7704 22.4534 16.9817L22.616 16.8191C23.4047 16.0303 23.4047 14.7515 22.616 13.9627L17.7972 9.14399C17.0085 8.35522 15.7296 8.35522 14.9409 9.14399Z" stroke="#29704D" stroke-width="2" stroke-linecap="round" stroke-linejoin="round"/>
<path d="M9.59076 22.5199L9.4282 22.6824C8.63942 23.4712 8.63943 24.7501 9.4282 25.5388L12.7374 28.8481C13.5262 29.6368 14.8051 29.6368 15.5938 28.8481L15.7564 28.6855C16.5452 27.8967 16.5452 26.6179 15.7564 25.8291L12.4471 22.5199C11.6584 21.7311 10.3795 21.7311 9.59076 22.5199Z" stroke="#29704D" stroke-width="2" stroke-linecap="round" stroke-linejoin="round"/>
<path d="M19.0548 32.3558H10.5652C10.0309 32.3558 9.51843 32.1441 9.13988 31.7671C8.76134 31.3901 8.54758 30.8785 8.54541 30.3442V30.1061C8.54758 29.5719 8.76134 29.0602 9.13988 28.6832C9.51843 28.3062 10.0309 28.0945 10.5652 28.0945H12.0102" stroke="#29704D" stroke-width="2" stroke-linecap="round" stroke-linejoin="round"/>
<path d="M17.5442 36.617H12.6179C12.0837 36.617 11.5712 36.4053 11.1926 36.0283C10.8141 35.6513 10.6003 35.1397 10.5981 34.6054V34.3673C10.6003 33.8331 10.8141 33.3215 11.1926 32.9444C11.5712 32.5674 12.0837 32.3558 12.6179 32.3558H16.8217" stroke="#29704D" stroke-width="2" stroke-linecap="round" stroke-linejoin="round"/>
<path d="M20.697 36.617H15.3437C14.8095 36.617 14.297 36.8287 13.9184 37.2057C13.5399 37.5827 13.3261 38.0943 13.324 38.6286V38.8667C13.3347 39.3952 13.5523 39.8985 13.9299 40.2684C14.3075 40.6384 14.8151 40.8455 15.3437 40.8454H24.5395L29.3262 35.1473" stroke="#29704D" stroke-width="2" stroke-linecap="round" stroke-linejoin="round"/>
<path d="M12.5182 12.8919L12.3557 13.0545C11.5669 13.8433 11.5669 15.1221 12.3557 15.9109L20.2108 23.766C20.9995 24.5547 22.2784 24.5547 23.0672 23.766L23.2297 23.6034C24.0185 22.8146 24.0185 21.5358 23.2297 20.747L15.3746 12.8919C14.5859 12.1032 13.307 12.1032 12.5182 12.8919Z" stroke="#29704D" stroke-width="2" stroke-linecap="round" stroke-linejoin="round"/>
<path d="M11.0859 17.6098L10.9233 17.7724C10.1345 18.5612 10.1345 19.84 10.9233 20.6288L18.7784 28.4839C19.5672 29.2727 20.846 29.2727 21.6348 28.4839L21.7973 28.3213C22.5861 27.5326 22.5861 26.2537 21.7973 25.4649L13.9423 17.6098C13.1535 16.8211 11.8746 16.8211 11.0859 17.6098Z" fill="#29704D"/>
<path d="M11.0859 17.6098L10.9233 17.7724C10.1345 18.5612 10.1345 19.84 10.9233 20.6288L18.7784 28.4839C19.5672 29.2727 20.846 29.2727 21.6348 28.4839L21.7973 28.3213C22.5861 27.5326 22.5861 26.2537 21.7973 25.4649L13.9423 17.6098C13.1535 16.8211 11.8746 16.8211 11.0859 17.6098Z" stroke="#29704D" stroke-width="2" stroke-linecap="round" stroke-linejoin="round"/>
<path d="M32.9305 46.2068V40.1804L38.6204 34.1703C39.5037 33.2392 39.9972 32.0053 39.9997 30.7219V26.8137C40.0074 26.0407 39.7128 25.2953 39.1787 24.7365L32.0684 17.503C31.8189 17.2518 31.5221 17.0524 31.1952 16.9164C30.8683 16.7803 30.5177 16.7103 30.1636 16.7103C29.8095 16.7103 29.4589 16.7803 29.132 16.9164C28.8051 17.0524 28.5083 17.2518 28.2587 17.503C28.0107 17.7502 27.814 18.0438 27.6797 18.3672C27.5454 18.6905 27.4763 19.0372 27.4763 19.3873C27.4763 19.7375 27.5454 20.0841 27.6797 20.4075C27.814 20.7308 28.0107 21.0245 28.2587 21.2716L32.2162 25.2455C32.6886 25.8198 32.975 26.5243 33.0372 27.2653C33.1696 28.2405 33.0855 29.2328 32.7909 30.1718" stroke="#29704D" stroke-width="2" stroke-linecap="round" stroke-linejoin="round"/>
<path d="M32.9307 1V8.57005C32.9358 9.28261 33.1233 9.98198 33.4755 10.6015C33.8276 11.2209 34.3326 11.7399 34.9422 12.1088C35.5582 12.4795 36.0678 13.0032 36.4217 13.629C36.7756 14.2548 36.9617 14.9614 36.962 15.6803V22.1173" stroke="#29704D" stroke-width="2" stroke-linecap="round" stroke-linejoin="round"/>
<path d="M17.7988 1V9.03805" stroke="#29704D" stroke-width="2" stroke-linecap="round" stroke-linejoin="round"/>
<path d="M20.8611 36.617L27.101 29.8187" stroke="#29704D" stroke-width="2" stroke-linecap="round" stroke-linejoin="round"/>
<path d="M16.7888 46.2068V41.182" stroke="#29704D" stroke-width="2" stroke-linecap="round" stroke-linejoin="round"/>
</svg>
