<svg width="48" height="48" viewBox="0 0 48 48" fill="none" xmlns="http://www.w3.org/2000/svg">
<path d="M5.09948 28.1878H9.29954V42.8985C9.29954 43.4558 9.52079 43.9904 9.91462 44.3845C10.3085 44.7786 10.8426 45 11.3996 45H36.5999C37.1569 45 37.691 44.7786 38.0849 44.3845C38.4787 43.9904 38.6999 43.4558 38.6999 42.8985V28.1878H42.9C43.3058 28.1882 43.7031 28.0706 44.0434 27.8494C44.3838 27.6282 44.6526 27.3128 44.8173 26.9416C44.9832 26.5706 45.0377 26.1594 44.9743 25.7579C44.9109 25.3565 44.7324 24.9821 44.4603 24.6804L25.5601 3.66513C24.7642 2.77829 23.2353 2.77829 22.4394 3.66513L3.53916 24.6804C3.26761 24.9823 3.08931 25.3565 3.02583 25.7577C2.96236 26.1589 3.01644 26.5699 3.18152 26.941C3.3466 27.3121 3.61561 27.6273 3.956 27.8486C4.29639 28.0699 4.69357 28.1877 5.09948 28.1878ZM16.9709 23.2303C17.845 22.3667 19.0239 21.8825 20.2522 21.8825C21.4806 21.8825 22.6594 22.3667 23.5335 23.2303L24.0039 23.6927L24.4722 23.2303C25.3467 22.3666 26.5259 21.8823 27.7546 21.8823C28.9833 21.8823 30.1625 22.3666 31.0369 23.2303C31.4708 23.648 31.8159 24.1489 32.0516 24.7032C32.2874 25.2575 32.4089 25.8537 32.4089 26.4562C32.4089 27.0586 32.2874 27.6548 32.0516 28.2091C31.8159 28.7634 31.4708 29.2644 31.0369 29.682L24.0039 36.5939L16.9709 29.682C16.5371 29.2644 16.192 28.7634 15.9563 28.2091C15.7205 27.6548 15.599 27.0586 15.599 26.4562C15.599 25.8537 15.7205 25.2575 15.9563 24.7032C16.192 24.1489 16.5371 23.648 16.9709 23.2303Z" fill="#29704D"/>
</svg>
