<svg width="48" height="48" viewBox="0 0 48 48" fill="none" xmlns="http://www.w3.org/2000/svg">
<rect width="48" height="48" fill="white"/>
<g clip-path="url(#clip0_403_3288)">
<path d="M47 17.4469C47 17.9332 46.8352 18.4228 46.496 18.832L42.9052 23.1654C42.4509 23.7135 41.7825 23.9986 41.1076 23.9986C40.6037 23.9986 40.0963 23.8395 39.6722 23.5121L35.5 20.2945V38.625C35.5 40.489 33.9554 42 32.05 42H15.95C14.0453 42 12.5 40.4883 12.5 38.625V20.2945L8.26658 23.5148C7.90361 23.8383 7.39618 23.9367 6.89233 23.9367C6.21757 23.9367 5.54899 23.6515 5.09474 23.1035L1.50401 18.832C1.16476 18.4242 1 17.932 1 17.4469C1 16.7956 1.29548 16.1503 1.86322 15.7116L11.5663 8.21625C12.4856 7.51102 13.6285 7.125 14.7353 7.125H17.215C17.7685 10.3144 20.586 12.75 24 12.75C27.4141 12.75 30.2337 10.3144 30.7843 7.125H33.1993C34.3745 7.125 35.5151 7.51102 36.433 8.21977L46.1361 15.7151C46.7053 16.1531 47 16.8 47 17.4469Z" fill="#29704D"/>
</g>
<defs>
<clipPath id="clip0_403_3288">
<rect width="46" height="36" fill="white" transform="translate(1 6)"/>
</clipPath>
</defs>
</svg>
