<svg width="48" height="49" viewBox="0 0 48 49" fill="none" xmlns="http://www.w3.org/2000/svg">
<rect width="48" height="48" transform="translate(0 0.5)" fill="white"/>
<rect width="46" height="46" transform="translate(1 1)" fill="white"/>
<path d="M23.9987 24.499C28.2311 24.499 31.665 21.1275 31.665 16.9713C31.665 13.768 27.1052 7.30539 25.0209 4.51052C24.5098 3.82983 23.4876 3.82983 22.9766 4.51052C20.8923 7.30539 16.3325 13.768 16.3325 16.9713C16.3325 21.1275 19.7663 24.499 23.9987 24.499ZM46.143 30.2729C45.2007 29.416 43.7313 29.4721 42.7411 30.2729L35.3623 36.191C34.46 36.9197 33.334 37.3121 32.1681 37.3121H22.721C22.0183 37.3121 21.4433 36.7355 21.4433 36.0308C21.4433 35.3261 22.0183 34.7495 22.721 34.7495H28.9738C30.2435 34.7495 31.4254 33.8766 31.633 32.6193C31.8966 31.0177 30.6668 29.6242 29.1096 29.6242H16.3325C14.1764 29.6242 12.0921 30.369 10.4151 31.7304L6.70177 34.7495H2.27771C1.57497 34.7495 1 35.3261 1 36.0308V43.7187C1 44.4234 1.57497 45 2.27771 45H30.7706C31.9285 45 33.0545 44.6076 33.9648 43.8789L46.0392 34.1889C47.253 33.2199 47.3488 31.362 46.143 30.2729Z" fill="#29704D"/>
</svg>
