<svg width="28" height="28" viewBox="0 0 28 28" fill="none" xmlns="http://www.w3.org/2000/svg">
<path d="M27.9856 14.2615C27.9856 13.1144 27.8904 12.2773 27.6842 11.4092H14.2793V16.5868H22.1477C21.9891 17.8735 21.1325 19.8113 19.2288 21.1134L19.2021 21.2868L23.4405 24.4953L23.7341 24.524C26.4309 22.0901 27.9856 18.5091 27.9856 14.2615Z" fill="#4285F4"/>
<path d="M14.279 27.9035C18.1338 27.9035 21.37 26.6632 23.7338 24.524L19.2284 21.1135C18.0228 21.9351 16.4047 22.5086 14.279 22.5086C10.5034 22.5086 7.29893 20.0749 6.15662 16.7109L5.98919 16.7248L1.58205 20.0578L1.52441 20.2144C3.87223 24.7719 8.69485 27.9035 14.279 27.9035Z" fill="#34A853"/>
<path d="M6.15608 16.7113C5.85467 15.8432 5.68023 14.913 5.68023 13.9519C5.68023 12.9907 5.85467 12.0606 6.14022 11.1925L6.13223 11.0076L1.66987 7.62109L1.52387 7.68896C0.556216 9.58024 0.000976562 11.7041 0.000976562 13.9519C0.000976562 16.1997 0.556216 18.3234 1.52387 20.2147L6.15608 16.7113Z" fill="#FBBC05"/>
<path d="M14.2788 5.3947C16.9598 5.3947 18.7682 6.52635 19.7994 7.47205L23.8288 3.6275C21.3541 1.37969 18.1337 0 14.2788 0C8.69472 0 3.87211 3.1314 1.52429 7.68899L6.14064 11.1925C7.29881 7.82857 10.5033 5.3947 14.2788 5.3947Z" fill="#EB4335"/>
</svg>
